<?xml version="1.0" encoding="UTF-8" standalone="no"?>
<svg width="32" height="32" viewBox="0 0 32 32" fill="none" xmlns="http://www.w3.org/2000/svg">
  <defs>
    <linearGradient id="goldGradient" x1="0%" y1="0%" x2="100%" y2="100%">
      <stop offset="0%" stop-color="#FFD700" />
      <stop offset="50%" stop-color="#E6BE8A" />
      <stop offset="100%" stop-color="#FFD700" />
    </linearGradient>
  </defs>
  
  <!-- Background -->
  <rect width="32" height="32" rx="4" fill="#CFD1EA" />
  
  <!-- Letter C -->
  <path d="M17.5 9.5C15.7 8.5 13.5 8.5 11.5 9.5C9.5 10.5 8 12.5 8 14.5C8 16.5 9 18.5 11 19.5C13 20.5 15 20.5 17 19.5" stroke="url(#goldGradient)" stroke-width="3" stroke-linecap="round"/>
  
  <!-- Stars -->
  <path d="M21,8 L22,10 L24,10.5 L22.5,12 L23,14 L21,13 L19,14 L19.5,12 L18,10.5 L20,10 Z" fill="url(#goldGradient)" />
  <path d="M24,15 L24.5,16 L26,16.2 L25,17.2 L25.2,18.5 L24,18 L22.8,18.5 L23,17.2 L22,16.2 L23.5,16 Z" fill="url(#goldGradient)" />
  <path d="M21,20 L21.5,21 L23,21.2 L22,22.2 L22.2,23.5 L21,23 L19.8,23.5 L20,22.2 L19,21.2 L20.5,21 Z" fill="url(#goldGradient)" />
</svg>
